HIERARCHY
ROOT mixamorig:Hips
{
	OFFSET 0.000000 201.639420 0.000000
	CHANNELS 6 Xposition Yposition Zposition Xrotation Yrotation Zrotation
	JOINT mixamorig:Spine
	{
		OFFSET 0.006200 19.524994 -2.481800
		CHANNELS 3 Xrotation Yrotation Zrotation
		JOINT mixamorig:Spine1
		{
			OFFSET -0.000900 22.835007 -2.825400
			CHANNELS 3 Xrotation Yrotation Zrotation
			JOINT mixamorig:Spine2
			{
				OFFSET -0.020600 26.552490 -3.193300
				CHANNELS 3 Xrotation Yrotation Zrotation
				JOINT mixamorig:Neck
				{
					OFFSET -0.060000 30.701813 1.352200
					CHANNELS 3 Xrotation Yrotation Zrotation
					JOINT mixamorig:Head
					{
						OFFSET -0.087200 22.547607 3.670900
						CHANNELS 3 Xrotation Yrotation Zrotation
						JOINT mixamorig:HeadTop_End
						{
							OFFSET -0.830600 40.355194 7.893500
							CHANNELS 3 Xrotation Yrotation Zrotation
							End Site
							{
								OFFSET 0.000000 30.592346 0.000000
							}
						}
						JOINT mixamorig:RightEye
						{
							OFFSET -6.302100 18.118591 16.197100
							CHANNELS 3 Xrotation Yrotation Zrotation
							End Site
							{
								OFFSET 0.000000 30.592346 0.000000
							}
						}
						JOINT mixamorig:LeftEye
						{
							OFFSET 6.741500 18.382690 16.401899
							CHANNELS 3 Xrotation Yrotation Zrotation
							End Site
							{
								OFFSET 0.000000 30.592346 0.000000
							}
						}
					}
				}
				JOINT mixamorig:LeftShoulder
				{
					OFFSET 11.924900 18.230499 1.425400
					CHANNELS 3 Xrotation Yrotation Zrotation
					JOINT mixamorig:LeftArm
					{
						OFFSET 25.435989 -0.697632 -5.229300
						CHANNELS 3 Xrotation Yrotation Zrotation
						JOINT mixamorig:LeftForeArm
						{
							OFFSET 54.684776 0.000000 0.000000
							CHANNELS 3 Xrotation Yrotation Zrotation
							JOINT mixamorig:LeftHand
							{
								OFFSET 55.098175 0.000000 0.000000
								CHANNELS 3 Xrotation Yrotation Zrotation
								JOINT mixamorig:LeftHandMiddle1
								{
									OFFSET 23.369751 0.000000 0.000000
									CHANNELS 3 Xrotation Yrotation Zrotation
									JOINT mixamorig:LeftHandMiddle2
									{
										OFFSET 6.378677 0.000000 0.000000
										CHANNELS 3 Xrotation Yrotation Zrotation
										JOINT mixamorig:LeftHandMiddle3
										{
											OFFSET 6.148331 0.000000 0.000000
											CHANNELS 3 Xrotation Yrotation Zrotation
											JOINT mixamorig:LeftHandMiddle4
											{
												OFFSET 6.582504 0.000000 0.000000
												CHANNELS 3 Xrotation Yrotation Zrotation
												End Site
												{
													OFFSET -1.168900 6.395691 1.028606
												}
											}
										}
									}
								}
								JOINT mixamorig:LeftHandThumb1
								{
									OFFSET 7.235672 -3.848206 5.434273
									CHANNELS 3 Xrotation Yrotation Zrotation
									JOINT mixamorig:LeftHandThumb2
									{
										OFFSET 6.568451 -3.792297 3.792300
										CHANNELS 3 Xrotation Yrotation Zrotation
										JOINT mixamorig:LeftHandThumb3
										{
											OFFSET 6.063080 -3.500519 3.500518
											CHANNELS 3 Xrotation Yrotation Zrotation
											JOINT mixamorig:LeftHandThumb4
											{
												OFFSET 4.793182 -2.767334 2.767349
												CHANNELS 3 Xrotation Yrotation Zrotation
												End Site
												{
													OFFSET 0.101639 6.054260 1.275483
												}
											}
										}
									}
								}
								JOINT mixamorig:LeftHandIndex1
								{
									OFFSET 23.101074 -0.309540 4.992809
									CHANNELS 3 Xrotation Yrotation Zrotation
									JOINT mixamorig:LeftHandIndex2
									{
										OFFSET 6.226883 0.000000 0.000000
										CHANNELS 3 Xrotation Yrotation Zrotation
										JOINT mixamorig:LeftHandIndex3
										{
											OFFSET 6.094330 0.000000 0.000000
											CHANNELS 3 Xrotation Yrotation Zrotation
											JOINT mixamorig:LeftHandIndex4
											{
												OFFSET 5.482605 0.000000 0.000000
												CHANNELS 3 Xrotation Yrotation Zrotation
												End Site
												{
													OFFSET -1.427902 5.233032 0.797164
												}
											}
										}
									}
								}
								JOINT mixamorig:LeftHandRing1
								{
									OFFSET 22.299240 0.021149 -3.964172
									CHANNELS 3 Xrotation Yrotation Zrotation
									JOINT mixamorig:LeftHandRing2
									{
										OFFSET 6.321869 0.000000 0.000000
										CHANNELS 3 Xrotation Yrotation Zrotation
										JOINT mixamorig:LeftHandRing3
										{
											OFFSET 5.899796 0.000000 0.000000
											CHANNELS 3 Xrotation Yrotation Zrotation
											JOINT mixamorig:LeftHandRing4
											{
												OFFSET 6.517899 0.000000 0.000000
												CHANNELS 3 Xrotation Yrotation Zrotation
												End Site
												{
													OFFSET -1.637299 6.232208 0.980890
												}
											}
										}
									}
								}
								JOINT mixamorig:LeftHandPinky1
								{
									OFFSET 20.463791 -0.302338 -8.562233
									CHANNELS 3 Xrotation Yrotation Zrotation
									JOINT mixamorig:LeftHandPinky2
									{
										OFFSET 6.908646 0.000000 0.000000
										CHANNELS 3 Xrotation Yrotation Zrotation
										JOINT mixamorig:LeftHandPinky3
										{
											OFFSET 4.622849 0.000000 0.000000
											CHANNELS 3 Xrotation Yrotation Zrotation
											JOINT mixamorig:LeftHandPinky4
											{
												OFFSET 5.216080 0.000000 0.000000
												CHANNELS 3 Xrotation Yrotation Zrotation
												End Site
												{
													OFFSET -0.606308 5.116241 0.814926
												}
											}
										}
									}
								}
							}
						}
					}
				}
				JOINT mixamorig:RightShoulder
				{
					OFFSET -12.001300 18.284088 1.348900
					CHANNELS 3 Xrotation Yrotation Zrotation
					JOINT mixamorig:RightArm
					{
						OFFSET -25.308500 -0.751312 -5.164599
						CHANNELS 3 Xrotation Yrotation Zrotation
						JOINT mixamorig:RightForeArm
						{
							OFFSET -54.684429 0.000000 0.000000
							CHANNELS 3 Xrotation Yrotation Zrotation
							JOINT mixamorig:RightHand
							{
								OFFSET -55.150291 0.000000 0.000000
								CHANNELS 3 Xrotation Yrotation Zrotation
								JOINT mixamorig:RightHandMiddle1
								{
									OFFSET -23.317566 0.000000 0.000000
									CHANNELS 3 Xrotation Yrotation Zrotation
									JOINT mixamorig:RightHandMiddle2
									{
										OFFSET -6.378403 0.000000 0.000000
										CHANNELS 3 Xrotation Yrotation Zrotation
										JOINT mixamorig:RightHandMiddle3
										{
											OFFSET -6.148193 0.000000 0.000000
											CHANNELS 3 Xrotation Yrotation Zrotation
											JOINT mixamorig:RightHandMiddle4
											{
												OFFSET -6.583389 0.000000 0.000000
												CHANNELS 3 Xrotation Yrotation Zrotation
												End Site
												{
													OFFSET 1.171692 6.395905 1.029786
												}
											}
										}
									}
								}
								JOINT mixamorig:RightHandThumb1
								{
									OFFSET -7.190521 -3.860474 5.435846
									CHANNELS 3 Xrotation Yrotation Zrotation
									JOINT mixamorig:RightHandThumb2
									{
										OFFSET -6.567429 -3.791718 3.791708
										CHANNELS 3 Xrotation Yrotation Zrotation
										JOINT mixamorig:RightHandThumb3
										{
											OFFSET -6.062469 -3.500153 3.500166
											CHANNELS 3 Xrotation Yrotation Zrotation
											JOINT mixamorig:RightHandThumb4
											{
												OFFSET -4.792618 -2.767029 2.767022
												CHANNELS 3 Xrotation Yrotation Zrotation
												End Site
												{
													OFFSET -0.100327 6.053253 1.276754
												}
											}
										}
									}
								}
								JOINT mixamorig:RightHandIndex1
								{
									OFFSET -23.048981 -0.310791 4.992554
									CHANNELS 3 Xrotation Yrotation Zrotation
									JOINT mixamorig:RightHandIndex2
									{
										OFFSET -6.227539 0.000000 0.000000
										CHANNELS 3 Xrotation Yrotation Zrotation
										JOINT mixamorig:RightHandIndex3
										{
											OFFSET -6.095047 0.000000 0.000000
											CHANNELS 3 Xrotation Yrotation Zrotation
											JOINT mixamorig:RightHandIndex4
											{
												OFFSET -5.484772 0.000000 0.000000
												CHANNELS 3 Xrotation Yrotation Zrotation
												End Site
												{
													OFFSET 1.420593 5.237305 0.797056
												}
											}
										}
									}
								}
								JOINT mixamorig:RightHandRing1
								{
									OFFSET -22.246323 0.020569 -3.963762
									CHANNELS 3 Xrotation Yrotation Zrotation
									JOINT mixamorig:RightHandRing2
									{
										OFFSET -6.322128 0.000000 0.000000
										CHANNELS 3 Xrotation Yrotation Zrotation
										JOINT mixamorig:RightHandRing3
										{
											OFFSET -5.900024 0.000000 0.000000
											CHANNELS 3 Xrotation Yrotation Zrotation
											JOINT mixamorig:RightHandRing4
											{
												OFFSET -6.518356 0.000000 0.000000
												CHANNELS 3 Xrotation Yrotation Zrotation
												End Site
												{
													OFFSET 1.636398 6.232697 0.982186
												}
											}
										}
									}
								}
								JOINT mixamorig:RightHandPinky1
								{
									OFFSET -20.411011 -0.303314 -8.561701
									CHANNELS 3 Xrotation Yrotation Zrotation
									JOINT mixamorig:RightHandPinky2
									{
										OFFSET -6.907349 0.000000 0.000000
										CHANNELS 3 Xrotation Yrotation Zrotation
										JOINT mixamorig:RightHandPinky3
										{
											OFFSET -4.623840 0.000000 0.000000
											CHANNELS 3 Xrotation Yrotation Zrotation
											JOINT mixamorig:RightHandPinky4
											{
												OFFSET -5.218353 0.000000 0.000000
												CHANNELS 3 Xrotation Yrotation Zrotation
												End Site
												{
													OFFSET 0.602097 5.118835 0.816273
												}
											}
										}
									}
								}
							}
						}
					}
				}
			}
		}
	}
	JOINT mixamorig:LeftUpLeg
	{
		OFFSET 18.168400 -13.561905 -0.039000
		CHANNELS 3 Xrotation Yrotation Zrotation
		JOINT mixamorig:LeftLeg
		{
			OFFSET 0.577358 -80.825211 -3.695000
			CHANNELS 3 Xrotation Yrotation Zrotation
			JOINT mixamorig:LeftFoot
			{
				OFFSET -0.577356 -83.370262 -6.520700
				CHANNELS 3 Xrotation Yrotation Zrotation
				JOINT mixamorig:LeftToeBase
				{
					OFFSET 0.750401 -20.798306 25.135401
					CHANNELS 3 Xrotation Yrotation Zrotation
					JOINT mixamorig:LeftToe_End
					{
						OFFSET -0.000500 0.001200 19.917799
						CHANNELS 3 Xrotation Yrotation Zrotation
						End Site
						{
							OFFSET 0.000000 19.917805 0.000000
						}
					}
				}
			}
		}
	}
	JOINT mixamorig:RightUpLeg
	{
		OFFSET -18.162500 -13.585098 -0.041000
		CHANNELS 3 Xrotation Yrotation Zrotation
		JOINT mixamorig:RightLeg
		{
			OFFSET -0.595024 -80.945297 -3.631900
			CHANNELS 3 Xrotation Yrotation Zrotation
			JOINT mixamorig:RightFoot
			{
				OFFSET 0.595024 -83.218193 -6.561200
				CHANNELS 3 Xrotation Yrotation Zrotation
				JOINT mixamorig:RightToeBase
				{
					OFFSET -0.753601 -20.807106 25.115000
					CHANNELS 3 Xrotation Yrotation Zrotation
					JOINT mixamorig:RightToe_End
					{
						OFFSET 0.000299 0.001700 19.918200
						CHANNELS 3 Xrotation Yrotation Zrotation
						End Site
						{
							OFFSET 0.000000 19.918203 0.000000
						}
					}
				}
			}
		}
	}
}
MOTION
Frames: 4
Frame Time: 0.033333
-64.212440 187.868958 59.155182 0.820245 35.571953 1.075449 6.096110 0.294859 -0.652879 12.195695 0.550068 -1.353674 12.195697 0.550069 -1.353673 -12.883721 -4.691091 3.032607 -14.156750 -12.994991 25.610792 0.000001 0.000002 0.000001 0.000001 0.000002 0.000001 0.000001 0.000002 0.000001 9.210787 -2.874005 -11.072464 -11.415813 -3.154750 -36.232644 -0.041913 -50.796445 0.156170 35.700562 -10.388945 10.388863 1.641870 7.127213 -4.239647 -0.187951 -0.789341 -15.969037 0.000001 0.000005 0.000008 0.000006 0.000000 0.000004 7.474994 -13.865598 -11.104281 -1.067051 0.182832 1.946073 0.000006 -0.000018 -0.000001 0.000000 0.000003 -0.000004 5.776119 -9.584524 -10.641330 0.033751 0.666550 -10.636469 0.000001 0.000002 -0.000001 0.000001 -0.000001 0.000001 1.677299 11.039983 -8.046060 -0.183061 -2.876884 -23.912159 -0.000000 -0.000003 -0.000010 0.000000 -0.000001 -0.000001 0.734600 28.047552 -16.218788 -0.849530 -6.142161 -29.148252 -0.000005 -0.000002 -0.000008 -0.000002 0.000001 0.000001 -3.753027 3.151078 -3.637862 -10.645038 4.271033 68.082964 -0.154809 48.674185 -0.091111 49.735709 -11.955748 -13.147855 -1.738478 -1.670972 3.393796 -0.252700 0.798099 21.448261 -0.000001 -0.000002 0.000009 0.000004 0.000000 0.000004 -4.978398 12.391668 9.407262 -1.210084 -0.220412 -2.120912 0.000010 0.000028 -0.000004 0.000001 -0.000001 -0.000001 10.258598 13.576564 6.067474 0.012532 -0.647883 4.076589 -0.000007 -0.000014 0.000003 0.000002 0.000001 -0.000001 -0.824280 -13.700967 18.348837 -0.242213 2.213615 16.221196 0.000001 0.000005 0.000008 -0.000000 0.000001 0.000002 -4.380723 -23.900587 30.060318 -0.233907 5.125290 12.870316 -0.000001 -0.000005 -0.000002 0.000000 0.000000 0.000000 -32.099707 -6.220022 7.736212 36.302930 7.825682 -0.653043 -3.414926 -2.224537 -11.263097 -0.475081 -0.026967 0.063694 -0.000000 -0.000003 -0.000000 -23.695714 -23.266187 -20.986936 41.643499 26.015726 3.337620 -25.173526 -32.276947 -4.261414 -0.020510 -0.187165 0.447023 -0.000000 0.000000 -0.000000 
-64.176559 187.778168 59.348557 0.842822 35.410566 1.067014 6.203097 0.256649 -0.661683 12.409195 0.470856 -1.368415 12.409191 0.470861 -1.368415 -12.780719 -4.625198 2.927871 -14.219389 -12.750640 25.444075 0.000000 -0.000001 -0.000001 0.000000 -0.000001 -0.000001 0.000000 -0.000001 -0.000001 9.474992 -2.042853 -12.205050 -9.917241 0.767345 -35.982803 -0.055639 -49.363082 0.143657 32.791356 -10.518589 9.672788 1.641867 7.127212 -4.239647 -0.187950 -0.789343 -15.969040 0.000001 0.000002 0.000011 -0.000001 -0.000000 -0.000000 8.307452 -13.470564 -11.189039 -1.067054 0.182854 1.946082 0.000009 -0.000018 0.000000 0.000002 0.000001 -0.000001 5.776116 -9.584524 -10.641324 0.033751 0.666550 -10.636464 -0.000001 0.000002 -0.000002 -0.000002 -0.000002 0.000000 1.677299 11.039978 -8.046059 -0.183064 -2.876887 -23.912159 0.000000 -0.000003 -0.000007 -0.000002 -0.000002 0.000001 0.734600 28.047554 -16.218788 -0.849531 -6.142169 -29.148252 0.000000 -0.000000 -0.000006 -0.000002 -0.000001 0.000001 -3.738315 2.141747 -2.915407 -9.575723 -0.214077 66.988679 -0.164920 47.910253 -0.087462 48.489822 -12.783945 -12.954087 -1.738478 -1.670973 3.393797 -0.252699 0.798100 21.448261 -0.000001 -0.000001 0.000002 0.000003 -0.000000 0.000001 -4.978396 12.391672 9.407257 -1.210107 -0.220447 -2.120941 0.000009 0.000027 -0.000006 0.000001 -0.000001 -0.000002 10.258595 13.576563 6.067470 0.012529 -0.647883 4.076587 -0.000004 -0.000010 -0.000002 0.000003 -0.000001 -0.000001 -0.824280 -13.700968 18.348837 -0.242211 2.213619 16.221196 0.000001 0.000007 0.000005 -0.000001 -0.000000 0.000001 -4.380725 -23.900591 30.060318 -0.233907 5.125291 12.870316 -0.000002 -0.000004 -0.000004 0.000000 -0.000000 0.000002 -32.147771 -6.129627 7.831538 36.545299 7.792720 -0.663437 -3.596795 -2.124444 -11.314483 -0.484155 -0.026976 0.063713 -0.000000 0.000002 0.000000 -23.681070 -23.058362 -20.901364 41.800143 25.797683 3.323721 -25.268882 -32.121314 -4.202872 -0.020517 -0.187164 0.447021 -0.000000 -0.000000 -0.000000 
-64.215202 187.720612 59.317947 0.902858 35.038959 1.050188 6.238518 0.248319 -0.668310 12.479905 0.452063 -1.377775 12.479915 0.452062 -1.377778 -12.556400 -4.498127 2.783501 -14.328364 -12.417169 25.023349 -0.000000 0.000001 -0.000001 -0.000000 0.000001 -0.000001 -0.000000 0.000001 -0.000001 9.630305 -1.238718 -13.309569 -8.460456 4.508601 -35.697813 -0.065706 -48.234700 0.134633 29.590039 -10.227396 8.702264 1.641869 7.127214 -4.239645 -0.187950 -0.789341 -15.969040 0.000000 0.000001 0.000008 0.000001 0.000000 -0.000001 8.837331 -12.936607 -11.071520 -1.067046 0.182831 1.946062 0.000010 -0.000020 0.000001 0.000003 -0.000001 -0.000003 5.776113 -9.584521 -10.641325 0.033753 0.666548 -10.636466 0.000001 0.000004 -0.000002 0.000000 0.000001 -0.000004 1.677303 11.039983 -8.046054 -0.183065 -2.876884 -23.912159 0.000002 -0.000003 -0.000007 0.000002 0.000001 -0.000001 0.734599 28.047557 -16.218784 -0.849530 -6.142165 -29.148249 -0.000003 -0.000002 -0.000007 0.000001 0.000001 -0.000000 -3.633103 1.305753 -2.069733 -8.658368 -4.029679 65.789926 -0.171013 47.382634 -0.084145 46.637816 -13.229262 -13.329099 -1.738480 -1.670972 3.393802 -0.252701 0.798101 21.448259 -0.000002 0.000001 0.000007 0.000000 -0.000001 -0.000000 -4.978396 12.391670 9.407262 -1.210115 -0.220456 -2.120936 0.000010 0.000028 -0.000009 -0.000002 -0.000001 -0.000002 10.258595 13.576564 6.067480 0.012528 -0.647883 4.076586 -0.000006 -0.000012 -0.000004 0.000002 0.000000 0.000000 -0.824280 -13.700968 18.348837 -0.242211 2.213617 16.221201 0.000001 0.000005 0.000007 -0.000000 0.000003 0.000002 -4.380728 -23.900589 30.060322 -0.233906 5.125292 12.870316 0.000000 -0.000004 -0.000004 -0.000001 0.000000 -0.000001 -32.217227 -5.840613 8.005830 36.694672 7.789065 -0.680181 -3.692922 -2.092766 -11.322263 -0.448100 -0.026911 0.063632 -0.000000 0.000001 0.000000 -23.879424 -22.848883 -20.909019 41.969375 25.578946 3.310249 -25.174049 -31.710164 -4.075124 -0.020508 -0.187161 0.447005 -0.000000 -0.000000 -0.000000 
-64.266426 187.600876 59.124493 0.935369 34.475031 1.125810 6.281704 0.276757 -0.679604 12.566621 0.506581 -1.392767 12.566630 0.506592 -1.392767 -12.343304 -4.329213 2.562449 -14.349695 -11.962301 24.476207 -0.000000 0.000001 -0.000000 -0.000000 0.000001 -0.000000 -0.000000 0.000001 -0.000000 9.781603 -0.537299 -14.301852 -7.311249 7.761848 -35.262132 -0.072197 -47.524818 0.129753 26.933381 -10.121156 8.073718 1.641871 7.127211 -4.239646 -0.187951 -0.789342 -15.969040 0.000000 0.000001 0.000009 -0.000004 -0.000000 0.000001 8.880176 -12.885043 -11.142530 -1.067065 0.182846 1.946066 0.000017 -0.000020 -0.000001 0.000002 -0.000002 0.000001 5.776118 -9.584524 -10.641327 0.033750 0.666548 -10.636468 0.000001 0.000003 -0.000003 -0.000002 -0.000001 -0.000001 1.677302 11.039980 -8.046052 -0.183066 -2.876884 -23.912154 0.000002 -0.000004 -0.000007 0.000000 0.000001 -0.000001 0.734599 28.047557 -16.218784 -0.849528 -6.142164 -29.148252 -0.000002 -0.000002 -0.000008 -0.000002 0.000002 0.000001 -3.550564 0.667635 -1.497285 -7.998484 -7.260676 64.780424 -0.175242 47.290963 -0.082232 44.865914 -13.613595 -14.440342 -1.738480 -1.670975 3.393801 -0.252701 0.798101 21.448261 -0.000002 -0.000003 0.000011 -0.000001 -0.000001 0.000001 -4.978400 12.391669 9.407265 -1.210114 -0.220420 -2.120958 0.000008 0.000028 -0.000011 0.000000 0.000001 0.000001 10.258597 13.576562 6.067477 0.012530 -0.647884 4.076589 -0.000004 -0.000013 0.000002 -0.000000 0.000001 -0.000001 -0.824284 -13.700968 18.348835 -0.242209 2.213619 16.221199 -0.000000 0.000006 0.000008 -0.000000 0.000001 -0.000001 -4.380728 -23.900587 30.060318 -0.233910 5.125288 12.870317 -0.000006 -0.000008 -0.000002 -0.000001 -0.000001 -0.000001 -32.312676 -5.520100 8.119650 36.948533 7.794068 -0.708538 -3.824712 -1.936198 -11.332508 -0.371020 -0.026768 0.063459 -0.000000 -0.000001 0.000000 -24.331456 -22.630348 -21.156574 42.321143 25.373951 3.303895 -25.012156 -31.016326 -3.898020 -0.020512 -0.187144 0.446977 0.000000 -0.000000 0.000000 
